<?xml version="1.0" encoding="UTF-8" standalone="no" ?>
<!DOCTYPE svg PUBLIC "-//W3C//DTD SVG 1.1//EN" "http://www.w3.org/Graphics/SVG/1.1/DTD/svg11.dtd">
<svg xmlns="http://www.w3.org/2000/svg" xmlns:xlink="http://www.w3.org/1999/xlink" version="1.1" width="512" height="512" viewBox="0 0 512 512" xml:space="preserve">
<desc>Created with Fabric.js 5.3.0</desc>
<defs>
</defs>
<g transform="matrix(2.1861880595 0 0 2.1861880595 279.6641432331 425.220811932)" id="DjOtuO34frZFSJ_j8iezw"  >
<g style=""   >
		<g transform="matrix(1 0 0 1 34.3692556539 -54.8912334592)" id="3uXxGX8Pvxu2Cf4cpsCuQ"  >
<path style="stroke: none; stroke-width: 1; stroke-dasharray: none; stroke-linecap: butt; stroke-dashoffset: 0; stroke-linejoin: miter; stroke-miterlimit: 4; fill: rgb(211,156,28); fill-rule: nonzero; opacity: 1;"  transform=" translate(-290.3692556539, -201.1087665408)" d="M 233.98 136.96 C 238.01 141.76 248.36 151.28 252.91 162.8 C 258.28 175.72 260.79 184.6 260.79 184.6 M 234 137 C 238.75 133.08 246.94 132.15 253 132.01 C 285.06 131.29 308.54 154.27 310 186 C 321.97 186 330.39 187.29 340 195.33 C 358.57 210.86 359.65 240.77 342.91 257.96 C 329.93 271.29 316.8 270 300 270 C 300 270 256 270 256 270 C 249.62 270 230.87 270.93 226 269 C 229.88 266.15 239.52 256.35 243.96 257.66 C 247.29 258.64 249.87 263.44 253.01 265.59 C 257.76 268.84 264.26 264.1 267.76 260.71 C 271.32 257.25 267.93 255.52 266.84 251 C 265.92 247.19 267.48 243.88 270.21 241.23 C 275.81 235.78 281.59 239.27 284.86 238.23 C 289.76 236.67 292.1 222.6 289.29 220.34 C 285.01 216.6 276.59 214.75 277.38 207 C 278.14 199.59 287.47 197.15 281.61 189 C 281.61 189 278.27 185.11 278.27 185.11 C 277.07 183.86 275.7 182.36 273.91 182.01 C 270.32 181.31 269.13 185.5 260.78 184.6" stroke-linecap="round" />
</g>
		<g transform="matrix(1 0 0 1 -55.1067293685 -80.447754921)" id="SKoP3ERe8om325rIFqeka"  >
<path style="stroke: none; stroke-width: 1; stroke-dasharray: none; stroke-linecap: butt; stroke-dashoffset: 0; stroke-linejoin: miter; stroke-miterlimit: 4; fill: rgb(214,40,40); fill-rule: nonzero; opacity: 1;"  transform=" translate(-200.8932706315, -175.552245079)" d="M 233.98 136.96 C 238.01 141.76 248.36 151.28 252.91 162.8 C 258.28 175.72 260.79 184.6 260.79 184.6 C 260.79 184.6 259.72 184.44 258.66 184.21 C 254.07 183.03 253.82 182.57 252.17 179.79 C 248.49 173.57 255.38 166.23 243 166 C 239.37 165.94 233.22 165.6 230.6 168.51 C 228.47 170.87 229.35 174.18 228.57 177 C 227.72 180.07 225.67 182.35 222.98 183.99 C 215.78 188.4 212.49 182.69 209.01 182.53 C 205.45 182.36 201.24 189.08 199.97 192 C 197.41 197.91 202.73 197.84 204.43 204 C 207.37 214.68 196.89 216.75 191.12 221.43 C 187.61 224.39 191.68 235.15 194.51 237.25 C 196.88 238.98 200.15 237.26 203 237.25 C 209.21 237.32 210.51 241.82 211 247 C 218.44 241.36 220.61 232.9 221.71 224 C 222.52 217.51 221.82 212.67 226.39 207.04 C 236.88 194.14 256.69 198.5 257.9 216 C 258.82 229.1 246.41 238.63 238 247 C 227.86 257.09 211.57 268.07 197 269.82 C 189.86 270.67 183.75 269.55 177 267.33 C 155.16 260.13 140.74 242.28 141 219 C 141.12 208.31 145.28 198.27 150.31 189 C 153.23 183.6 158.13 176.84 159.47 171 C 160.16 168 160 164.12 160 161 C 170.71 168.86 168.29 175.9 171 187 C 173.73 184.2 176.51 181.53 178.16 178 C 184.72 165.49 178.15 150.94 178.16 138 C 177.72 112.72 190.23 95.53 210 81 C 212.43 87.12 209.14 95.66 213.55 108 C 218.55 122 226.59 126.65 234 137" stroke-linecap="round" />
</g>
</g>
</g>
</svg>