<?xml version="1.0" encoding="utf-8"?>
<!-- Generator: Adobe Illustrator 13.0.0, SVG Export Plug-In . SVG Version: 6.00 Build 14948)  -->
<!DOCTYPE svg PUBLIC "-//W3C//DTD SVG 1.1//EN" "http://www.w3.org/Graphics/SVG/1.1/DTD/svg11.dtd">
<svg version="1.1" id="Ebene_1" xmlns="http://www.w3.org/2000/svg" xmlns:xlink="http://www.w3.org/1999/xlink" x="0px" y="0px"
	 width="1263.105px" height="169.306px" viewBox="0 0 1263.105 169.306" enable-background="new 0 0 1263.105 169.306"
	 xml:space="preserve">
<path fill="#E2001A" d="M94.93,35.84c8.206-10.453,22.125-17.547,28.975-18.742c49.658-8.663,71.278,27.664,66.791,57.102
	c-6.174,42.88-78.407,79.982-93.692,81.172c-15.318-0.677-88.39-35.253-96.114-77.899c-5.553-29.27,14.738-66.301,64.679-59.308
	C72.458,19.131,86.421,25.749,94.93,35.84"/>
<path fill="#FFFFFF" d="M59.824,60.554l-5.474,9.2l-7.871-9.862l11.887-3.351c-0.27-1.201-0.412-2.452-0.412-3.734
	c0-9.36,7.587-16.947,16.947-16.946c9.36,0,16.948,7.586,16.948,16.947c0,1.617-0.227,3.18-0.651,4.662l9.879,2.28l-6.386,10.005
	l-5.398-7.994c-2.626,4.212-7.051,7.188-12.201,7.853l0.018,1.292c0,0,6.686,1.723,8.559,4.124l11.938,13.575
	c0,0,8.658-12.615,8.869-12.953c2.932-4.683,5.801-4.612,10.101-5.545l0.001-1.08c-8.065-1.322-14.219-8.323-14.219-16.761
	c0-9.381,7.605-16.985,16.985-16.984c9.38,0,16.984,7.603,16.984,16.985c0,8.332-6.002,15.264-13.919,16.707v1.134
	c0,0,7.191,0.533,10.514,4.789l11.823,15.097c2.913,3.668-1.815,8.658-5.142,4.58c-2.176-2.668-4.804-5.603-6.26-7.16l-0.008,19.759
	h-3.681v17.496l5.419,4.122c2.575,2.517-0.561,3.241-0.561,3.241l-11.899-0.004c0,0-1.493-0.933-1.503-2.036l0.015-22.819h-2.098
	v22.981c0,0-0.788,1.947-1.595,1.874l-11.56,0.003c-1.759,0-2.452-1.497-0.644-3.063c1.62-1.406,3.262-2.856,5.197-4.297v-17.499
	h-3.316l-0.006-19.048l-5.548,6.92c-0.741,1.652-2.138,2.518-3.948,2.446c-1.702-0.067-2.922-0.892-3.619-2.446
	c0,0-6.438-7.161-8.131-8.957c-0.075-0.073,4.024,10.723,7.625,18.258c0.75,1.569-0.594,2.683-1.457,2.827h-6.585v17.496
	c0,0,6.034,3.534,6.403,5.594c0.313,1.742-1.171,1.766-1.171,1.766h-12.47c-1.402,0-1.179-1.36-1.179-1.36v-23.495h-2.288
	l0.008,23.502c0,0-0.08,1.354-1.191,1.354H61.652c0,0-1.181-0.023-1.181-1.62c0-1.661,6.202-5.739,6.194-5.737l-0.01-17.498
	c-2.593-0.068-5.049,0.067-7.292,0c-1.238-0.037-1.963-1.214-1.542-2.833l6.603-18.272l-8.215,10.234
	c-2.996,3.762-8.764-1.259-5.488-4.534l12.871-16.342c2.719-3.326,5.593-3.804,8.272-4.528c0.098-0.026,0.144-0.586,0.159-1.387
	C66.695,68.599,62.217,65.201,59.824,60.554"/>
<path fill-rule="evenodd" clip-rule="evenodd" fill="#0060A9" d="M221.607,112.975c5.05-1.531,12.339-1.692,13.892-2.935
	c1.957-1.565,14.87-51.263,15.262-53.611c0.391-2.347-5.479,0-8.218,1.958c-2.739,1.956-17.218,1.564-10.174-8.218
	c7.043-9.783,37.567-20.349,55.959-5.087c18.392,15.261,23.479,55.957-53.612,80.609
	C219.214,130.648,214.486,114.684,221.607,112.975 M269.74,48.603c0,0-16.827,49.306-17.414,52.436
	c-0.587,3.131-0.402,5.652,1.957,4.501C304.763,80.887,289.11,47.038,269.74,48.603z"/>
<path fill-rule="evenodd" clip-rule="evenodd" fill="#0060A9" d="M314.742,65.429c2.739-3.13,16.24-0.39,9.587,8.61
	c-6.652,9-22.401,35.85-4.696,35.218c3.041-0.108,9.783-5.087,12.523-11.348c2.543-15.262,2.258-10.405,4.696-17.022
	c5.478-14.871,29.349-26.414,37.175-24.849c7.827,1.565,17.414,15.849,0,33.262c-18.706,18.706-25.473,5.625-27.784,14.87
	c-1.565,6.26,3.522,11.152,14.479-0.195c11.253-11.655,15.653,3.326,10.565,8.021c-5.086,4.695-14.478,17.608-32.283,4.305
	c-3.794-2.835-2.689-1.662-12.132,3.326c-10.369,5.478-41.088-3.913-21.718-39.719C311.702,67.806,314.742,65.429,314.742,65.429
	 M348.592,89.3c0,0-2.349,4.5,2.347,1.565c6.689-4.181,15.262-14.674,16.24-17.414c0.978-2.739,1.957-4.696-2.152-3.326
	C353.961,73.814,349.765,86.561,348.592,89.3z"/>
<path fill="#0060A9" d="M327.851,42.831c1.467,1.762,7.142,8.512,11.544,4.892c4.402-3.62,8.022-13.109,4.598-15.555
	c-3.424-2.445-4.989-0.979-6.554-1.761c-1.566-0.782-2.74-2.543-4.696-1.076c-1.957,1.468-5.797,4.18-6.262,5.576
	C325.014,39.31,327.851,42.831,327.851,42.831"/>
<path fill="#0060A9" d="M517.645,4.973c0,0,9.56,1.32,8.907,13.856c-0.247,4.745-5.244,17.815-12.865,17.815
	c-7.72,0-8.907-7.918-8.907-13.856C504.779,10.813,506.07,5.777,517.645,4.973"/>
<path fill="#0060A9" d="M491.009,137.395c3.76,3.268,4.327,8.799,1.245,12.712c-2.89,3.674-10.253,3.647-11.75,2.352
	c0,0-42.297-36.659-58.042-50.289c-1.445,10.513-6.813,38.53-6.813,38.53c-0.882,4.983-4.727,9.273-9.742,8.58
	c-5.381-0.747-7.306-6.97-6.474-12.339L415.412,33.8c0,0,3.958-11.927,9.866-11.539c6.186,0.409,8.852,7.535,7.759,13.875
	c-2.35,13.63-4.23,21.385-6.58,37.834c17.39-20.445,53.812-57.338,53.812-57.338c3.025-3.223,7.585-4.527,11.167-1.936
	c4.028,2.912,3.543,9.148,0.113,12.745l-57.572,60.394L491.009,137.395"/>
<path fill-rule="evenodd" clip-rule="evenodd" fill="#0060A9" d="M657.101,12.994c8.279-0.887,13.901,4.955,9,10.784
	c-12.608,14.991-20.839,75.277-19.794,97.985c0.182,3.965-5.245,7.918-7.917,7.918c-6.335,0-8.503-2.39-8.727-7.525
	c0,0-28.385,16.68-33.428-11.69c0.224-9.377,1.117-22.631,3.078-40.646c0.571-12.493,10.106-24.37,22.25-21.297
	c0.288,0.072,14.25,1.892,18.012,6.741C639.575,55.263,642.667,14.541,657.101,12.994 M629.481,69.307
	c-10.009-2.703-19.611,6.082-18.653,25.672c0,0-1.483,16.247,5.97,13.301c5.522-2.185,12.56-0.801,14.205-23.124
	C631.293,81.207,634.188,72.56,629.481,69.307z"/>
<path fill-rule="evenodd" clip-rule="evenodd" fill="#0060A9" d="M816.536,0.025c7.059-0.433,12.866,4.849,12.866,14.845
	c0,11.283-1.485,28.209-23.753,50.478c-11.802,11.801-14.463,12.333-14.96,13.557c-0.132,0.326-0.024,1.818,0.457,2.826
	c2.128,4.459,9.178,2.814,8.222,11.679c-1.529,14.171-20.831-5.364-19.588,13.918c1.031,15.979-6.01,61.109-14.709,61.943
	c-8.067,0.772-12.273-11.283-11.877-28.702c0-2.971-0.159-31.623,10.471-44.51c0.819-0.99-4.532-3.791-4.532-9.928
	c0-6.852,7.625-7.997,12.522-13.101c3.237-3.373,4.353-9.753,5.601-16.984C781.815,29.645,797.272,1.204,816.536,0.025
	 M812.436,20.66c1.751,0.133,2.349,1.508,2.223,3.257c-0.984,13.69-14.569,26.084-24.674,34.778
	C789.984,58.695,802.674,19.922,812.436,20.66z"/>
<path fill-rule="evenodd" clip-rule="evenodd" fill="#0060A9" d="M705.689,34.665c12.777,1.506,17.503,13.12,17.558,16.089
	c0.541,29.118-32.311,43.108-41.991,49.887c0,0-0.949,2.445-0.949,3.604c0,0.396-3.069,19.696,17.465,10.59
	c9.533-4.229,19.642-19.646,23.832-32.17c3.07-9.182,13.332-41.319,28.622-41.071c14.982,0.242,15.836,17.32,15.836,17.814
	c0,6.038-2.274,14.996-8.908,13.858c-5.472-0.941-3.827-8.46-6.928-9.898c-12.878-1.853-24.568,44.991-21.773,53.447
	c3.119,9.436-2.148,14.964-10.14,16.608c-2.423,0.5-5.64,1.175-7.754-9.634c-4.936,4.465-16.621,17.027-25.654,14.799
	c-13.887-3.425-19.398-16.727-19.793-29.691C664.912,101.374,670.502,30.521,705.689,34.665 M697.869,56.111
	c3.524-1.881,6.635-1.191,7.293,1.65c2.342,10.099-13.333,16.373-20.059,23.173C686.192,73.512,690.359,60.116,697.869,56.111z"/>
<path fill-rule="evenodd" clip-rule="evenodd" fill="#0060A9" d="M1027.644,109.285c1.216,3.943,2.662,6.832,2.669,8.519
	c0.008,1.583,4.258,6.81-8.907,7.918c-1.935,0.163-9.897-3.266-9.897-15.836v-0.601H1027.644 M992.205,109.285
	c-4.678,5.263-9.958,10.854-16.327,15.445c-7.449,5.374-10.916-0.633-10.804-15.443L992.205,109.285z M961.455,109.285
	c0.537,5.818-0.512,9.729-6.744,10.509c-0.195,0.025-6.545,1.245-8.554-8.883c0,0-0.088-0.604-0.243-1.63L961.455,109.285z
	 M925.663,109.285c-6.215,7.814-13.038,14.536-18.074,14.457c-9.158-0.144-12.192-7.851-12.949-14.462L925.663,109.285z
	 M859.766,109.285c0.193,0.404,0.467,0.792,0.843,1.169c3.124,3.126,6.974,2.173,11.133-1.163l17.676-0.006
	c-7.845,8.757-19.335,20.396-29.334,20.396c-2.037,0-15.304-0.091-15.835-20.4L859.766,109.285z M818.018,109.285
	c-2.487,8.773-5.089,15.858-9.399,17.427c-6.179,2.246-8.765-2.218-8.907-9.897c-0.039-2.073,0.15-4.633,0.558-7.528
	L818.018,109.285z"/>
<path fill-rule="evenodd" clip-rule="evenodd" fill="#0060A9" d="M877.203,59.903c1.607,3.962-5.572,16.686-13.02,20.26
	C867.612,64.006,872.747,56.415,877.203,59.903 M965.074,109.285c0.066-8.768,1.386-20.622,3.877-35.03
	c0,0,1.55-16.929,9.896-16.825c0.197,0.002,12.991-4.467,9.897,11.877c-3.295,17.401-3.057,23.946-2.264,25.133
	c11.876-8.61,30.767-33.052,35.913-33.052c3.563,0,8.519,3.708,7.918,7.919l-2.969,20.783c-2.359,7.826-1.205,14.319,0.3,19.198
	l-16.136-0.003V92.07c-6.203,1.626-12.026,9.024-19.303,17.212L965.074,109.285z M871.741,109.285
	C885.822,98,903.459,59.408,908.578,59.408c5.84,0,10.887,7.721,10.887,10.888c0,5.642-10.786,19.972-9.4,30.464
	c15.978-8.93,31.775-47.284,41.072-45.31c13.694,2.906,3.074,9.127,8.744,43.665c0.62,3.774,1.303,7.222,1.574,10.176l-15.541-0.005
	c-0.738-4.916-2.986-19.49-4.278-23.608c0,0-7.41,12.842-15.973,23.607l-31.023,0.001c-0.243-2.125-0.252-4.132-0.155-5.741
	c-1.415,1.591-3.13,3.579-5.067,5.742L871.741,109.285z M800.269,109.285c2.88-20.517,16.701-57.875,38.124-57.875
	c14.152,0,14.568,7.284,14.763,11.957c5.446-11.957,10.805-24.391,22.763-23.754c9.706,0.517,14.327,5.698,15.571,13.687
	c0.95,6.099,3.065,26.543-21.374,43.933c-3.22,2.291-6.127,3.674-10.398,5.194c0.043,2.616-0.907,4.888,0.049,6.86l-15.518-0.003
	c-0.011-0.42-0.017-0.845-0.017-1.276c0,0,0.283-11.409,1.349-18.604c1.004-6.77,0.422-2.384,3.787-17.13
	c-6.275,3.106-10.27,2.167-13.037-2.967c-10.471,6.645-14.236,25.584-18.313,39.975L800.269,109.285z"/>
<path fill-rule="evenodd" clip-rule="evenodd" fill="#0060A9" d="M1114.212,104.703c-1.286,15.671,14.923,19.48,22.99,19.016
	c0,0,17.103,2.13,69.767-19.018l20.682,0.002c-58.436,33.616-73.811,32.479-84.713,33.42c-5.771,0.498-40.829,5.98-43.246-33.425
	L1114.212,104.703 M1056.188,104.703c0.79,3.431,2.827,3.204,2.827,3.204c2.056,0.646,4.834-0.373,7.54-3.202l21.172-0.002
	c0.745,0.82,1.527,1.775,2.046,2.636c1.298,2.158,2.637,4.276,2.312,6.029c-1.42,7.671-6.107,9.457-9.68,9.011
	c-3.732-0.467-5.582-2.233-7.614-4.935c-3.994,5.404-11.514,10.104-21.715,9.268c-12.131-0.997-13.854-12.274-13.854-20.785
	c0-0.41,0.004-0.82,0.012-1.227L1056.188,104.703z"/>
<path fill-rule="evenodd" clip-rule="evenodd" fill="#0060A9" d="M1148.102,54.473c1.351,0.734-0.353,4.793-1.169,6.102
	c-6.339,10.149-11.28,13.63-27.024,22.326C1124.362,73.993,1142.467,51.411,1148.102,54.473 M1206.969,104.703
	c14.43-5.795,31.528-13.338,51.676-23.15c4.229-2.06,5.859,0.842,3.093,2.578c-12.761,8.004-24.058,14.797-34.087,20.568
	L1206.969,104.703z M1099.691,104.703c-0.129-2.105-0.165-4.332-0.1-6.694c0.685-24.539,28.125-73.674,53.444-64.335
	c0,0,16.254,6.362,14.845,17.816c-5.358,43.568-53.143,51.855-53.565,52.229c-0.041,0.334-0.076,0.662-0.104,0.986L1099.691,104.703
	z M1066.555,104.703c4.754-4.968,9.285-15.521,9.285-32.428v-5.938c0-6.73-9.463-13.135-17.815-12.866
	c-10.867,0.348-13.313,18.384-20.513,10.556c-6.079-6.609-2.084-28.446,20.513-28.372c6.291,0.02,20.388,7.522,24.743,11.877
	c4.477-4.581,16.205-33.725,22.763-35.632c4.743-1.378,15.553,4.262,10.331,8.826c-4.552,3.978-16.494,24.433-22.037,43.139
	c-0.495,1.684,1.136,6.145-8.168,38.708c0,0,0.995,0.93,2.07,2.125L1066.555,104.703z M1039.232,104.703
	c0.396-18.672,9.7-34.407,14.833-34.407c5.543,0,8.895,3.173,7.673,6.618c-5.828,16.424-6.385,24.151-5.551,27.785L1039.232,104.703
	z"/>
<path fill="#0060A9" d="M495.479,131.063c-19.909-17.379-0.198-81.159,6.928-81.159c0,0,17.58,1.751,13.856,8.907
	c0,0-13.397,16.934-10.85,47.823c27.729-11.044,22.795-51.464,33.625-49.789c5.927,0.915,10.875,4.341,10.875,10.874
	c0,2.672-5.962,27.166-5.962,27.166c28.702-28.703,31.141-40.646,35.653-40.033c18.218,2.474-3.947,23.092,2.969,68.292
	c0.905,5.914-5.052,8.117-8.907,7.918c-10.38-0.538-6.216-15.969-7.918-37.61c-7.228,8.247-23.159,32.661-32.661,32.661
	c-4.552,0-7.224-7.423-8.906-13.856C520.217,116.504,504.709,133.423,495.479,131.063"/>
</svg>
